<svg width="39" height="23" viewBox="0 0 39 23" fill="#000" xmlns="http://www.w3.org/2000/svg">
  <path
    d="M19.5244 3.28571C27.2448 3.28571 32.6267 8.234 34.9684 10.902C32.6917 13.9199 27.3098 19.7143 19.5244 19.7143C12.3419 19.7143 6.63812 13.9051 4.12262 10.8314C6.54875 8.12557 11.9503 3.28571 19.5244 3.28571V3.28571ZM19.5244 0C7.22475 0 0 10.7624 0 10.7624C0 10.7624 7.85688 23 19.5244 23C32.0905 23 39 10.7624 39 10.7624C39 10.7624 32.0271 0 19.5244 0ZM19.5 11.5L14.04 7.93336C13.3819 8.96014 13 10.1857 13 11.5C13 15.1291 15.9104 18.0714 19.5 18.0714C23.0896 18.0714 26 15.1291 26 11.5C26 7.87093 23.0896 4.92857 19.5 4.92857C18.2943 4.92857 17.1633 5.26043 16.1964 5.83871L19.5 11.5Z"/>
</svg>
