<svg width="39" height="30" viewBox="0 0 39 30" fill="#000" xmlns="http://www.w3.org/2000/svg">
  <path
    d="M31.8565 0L26.4192 5.09762C24.3555 4.40212 22.0545 3.96175 19.5244 3.96175C7.22475 3.96175 0 14.6071 0 14.6071C0 14.6071 3.133 19.4025 8.36225 22.9564L3.63187 27.6835L5.92962 29.9812L34.1559 2.29937L31.8565 0V0ZM22.0805 9.39087C16.7375 7.02975 11.2239 12.4914 13.5249 17.8506L10.7201 20.6245C7.77238 18.7395 5.4795 16.3182 4.12262 14.677C6.54875 11.999 11.9503 7.21175 19.5244 7.21175C21.0308 7.21175 22.4429 7.40512 23.7656 7.72362L22.0805 9.39087V9.39087ZM17.3956 21.4662L25.6669 13.3526C27.3195 18.408 22.412 23.2115 17.3956 21.4662ZM39 14.6071C39 14.6071 32.0905 26.7117 19.5244 26.7117C17.2835 26.7117 15.1986 26.2389 13.2665 25.5141L15.8892 22.9417C17.0511 23.2554 18.2585 23.4617 19.5244 23.4617C27.3098 23.4617 32.6934 17.7304 34.9684 14.7452C33.7837 13.4095 31.7899 11.5115 29.1395 9.94825L31.5591 7.57575C36.4049 10.6632 39 14.6071 39 14.6071V14.6071Z"/>
</svg>
